# xmcd
#
# Track frame offsets:
#	150
#	7015
#	27530
#	48010
#	70060
#	76055
#	98257
#	119330
#
# Disc length: 1866 seconds
#
# Revision: 2
# Processed by: cddbd v1.5.2PL0 Copyright (c) Steve Scherf et al.
# Submitted via: EasyCDDAExtractor 15.2.5.1
#
DISCID=53074808
DTITLE=김성호 - 4집 16 (1997) by oreum.com
DYEAR=1997
DGENRE=Pop
TTITLE0=16
TTITLE1=엄마는 섬기는걸 안가르치지
TTITLE2=오래된 기억
TTITLE3=사람들은 무서운 것이 없어
TTITLE4=무제
TTITLE5=우리는 사랑을 모르고 외로워
TTITLE6=백년도 못살면서
TTITLE7=나에게 비밀이 있어
EXTD=
EXTT0=
EXTT1=
EXTT2=
EXTT3=
EXTT4=
EXTT5=
EXTT6=
EXTT7=
PLAYORDER=
